%TF.GenerationSoftware,KiCad,Pcbnew,(6.0.7)*%
%TF.CreationDate,2023-01-13T08:14:30+01:00*%
%TF.ProjectId,VolvoPenta Digitalization,566f6c76-6f50-4656-9e74-612044696769,rev?*%
%TF.SameCoordinates,Original*%
%TF.FileFunction,Copper,L1,Top*%
%TF.FilePolarity,Positive*%
%FSLAX46Y46*%
G04 Gerber Fmt 4.6, Leading zero omitted, Abs format (unit mm)*
G04 Created by KiCad (PCBNEW (6.0.7)) date 2023-01-13 08:14:30*
%MOMM*%
%LPD*%
G01*
G04 APERTURE LIST*
%TA.AperFunction,NonConductor*%
%ADD10C,0.200000*%
%TD*%
%TA.AperFunction,ComponentPad*%
%ADD11C,3.000000*%
%TD*%
%TA.AperFunction,SMDPad,CuDef*%
%ADD12R,3.000000X3.000000*%
%TD*%
%TA.AperFunction,ComponentPad*%
%ADD13C,1.600000*%
%TD*%
%TA.AperFunction,ComponentPad*%
%ADD14O,1.600000X1.600000*%
%TD*%
%TA.AperFunction,ComponentPad*%
%ADD15R,1.700000X1.700000*%
%TD*%
%TA.AperFunction,ComponentPad*%
%ADD16O,1.700000X1.700000*%
%TD*%
%TA.AperFunction,ComponentPad*%
%ADD17R,3.000000X3.000000*%
%TD*%
%TA.AperFunction,ComponentPad*%
%ADD18R,1.600000X1.600000*%
%TD*%
%TA.AperFunction,Conductor*%
%ADD19C,1.000000*%
%TD*%
%TA.AperFunction,Conductor*%
%ADD20C,1.500000*%
%TD*%
G04 APERTURE END LIST*
D10*
X92040000Y-43080000D02*
X161960000Y-43080000D01*
X161960000Y-43080000D02*
X161960000Y-93100000D01*
X161960000Y-93100000D02*
X92040000Y-93100000D01*
X92040000Y-93100000D02*
X92040000Y-43080000D01*
D11*
%TO.P,U1,3V3,3V3*%
%TO.N,VCC*%
X114300000Y-84995000D03*
%TO.P,U1,A0,A0*%
%TO.N,unconnected-(U1-PadA0)*%
X114300000Y-74835000D03*
%TO.P,U1,A1,A1*%
%TO.N,unconnected-(U1-PadA1)*%
X114300000Y-69755000D03*
%TO.P,U1,A2,A2*%
%TO.N,Tank_Gauge*%
X114300000Y-64675000D03*
%TO.P,U1,A3,A3*%
%TO.N,FAE31020 Sensor*%
X144780000Y-64675000D03*
%TO.P,U1,D2,D2*%
%TO.N,Net-(R6-Pad1)*%
X144780000Y-69755000D03*
%TO.P,U1,D3,D3*%
%TO.N,unconnected-(U1-PadD3)*%
X144780000Y-74835000D03*
%TO.P,U1,D4,D4*%
%TO.N,unconnected-(U1-PadD4)*%
X144780000Y-79915000D03*
%TO.P,U1,D7,D7*%
%TO.N,DS18B20 Sensor*%
X144780000Y-84995000D03*
%TO.P,U1,GND1,GND*%
%TO.N,GND*%
X114300000Y-79915000D03*
%TO.P,U1,GND2,GND*%
%TO.N,unconnected-(U1-PadGND2)*%
X118110000Y-91345000D03*
D12*
%TO.P,U1,RX,RX*%
%TO.N,unconnected-(U1-PadRX)*%
X133350000Y-69755000D03*
%TO.P,U1,SCL,SCL*%
%TO.N,SCL*%
X125730000Y-64675000D03*
%TO.P,U1,SDA,SDA*%
%TO.N,SDA*%
X125730000Y-69755000D03*
%TO.P,U1,TX,TX*%
%TO.N,unconnected-(U1-PadTX)*%
X133350000Y-64675000D03*
D11*
%TO.P,U1,VIN,VIN*%
%TO.N,unconnected-(U1-PadVIN)*%
X140970000Y-91345000D03*
%TD*%
D13*
%TO.P,R1,1*%
%TO.N,Tank_Gauge*%
X106680000Y-66040000D03*
D14*
%TO.P,R1,2*%
%TO.N,VCC*%
X106680000Y-58420000D03*
%TD*%
D15*
%TO.P,SSD1306,1,Pin_1*%
%TO.N,SDA*%
X104140000Y-53340000D03*
D16*
%TO.P,SSD1306,2,Pin_2*%
%TO.N,SCL*%
X104140000Y-50800000D03*
%TO.P,SSD1306,3,Pin_3*%
%TO.N,VCC*%
X104140000Y-48260000D03*
%TO.P,SSD1306,4,Pin_4*%
%TO.N,GND*%
X104140000Y-45720000D03*
%TD*%
D13*
%TO.P,R4,1*%
%TO.N,Net-(R4-Pad1)*%
X142240000Y-45720000D03*
D14*
%TO.P,R4,2*%
%TO.N,Alternator W*%
X149860000Y-45720000D03*
%TD*%
D17*
%TO.P,JC3,1,Pin_1*%
%TO.N,FAE31020 Sensor*%
X157480000Y-53340000D03*
D11*
%TO.P,JC3,2,Pin_2*%
%TO.N,Alternator W*%
X157480000Y-48260000D03*
%TD*%
D17*
%TO.P,JC4,1,Pin_1*%
%TO.N,GND*%
X157480000Y-73660000D03*
D11*
%TO.P,JC4,2,Pin_2*%
%TO.N,DS18B20 Sensor*%
X157480000Y-68580000D03*
%TD*%
D17*
%TO.P,JC2,1,Pin_1*%
%TO.N,GND*%
X96520000Y-60960000D03*
D11*
%TO.P,JC2,2,Pin_2*%
%TO.N,Tank_Gauge*%
X96520000Y-66040000D03*
%TD*%
D18*
%TO.P,U2,1*%
%TO.N,Net-(U2-Pad1)*%
X119380000Y-45740000D03*
D14*
%TO.P,U2,2*%
%TO.N,GND*%
X116840000Y-45740000D03*
%TO.P,U2,3*%
X116840000Y-53360000D03*
%TO.P,U2,4*%
%TO.N,Net-(R6-Pad1)*%
X119380000Y-53360000D03*
%TD*%
D17*
%TO.P,JC12V1,1,Pin_1*%
%TO.N,Net-(JC12V1-Pad1)*%
X96520000Y-83820000D03*
D11*
%TO.P,JC12V1,2,Pin_2*%
%TO.N,Net-(JUSB_Conv1-Pad2)*%
X96520000Y-88900000D03*
%TD*%
D15*
%TO.P,JUSB_Conv1,1,Pin_1*%
%TO.N,Net-(JC12V1-Pad1)*%
X106680000Y-86360000D03*
D16*
%TO.P,JUSB_Conv1,2,Pin_2*%
%TO.N,Net-(JUSB_Conv1-Pad2)*%
X106680000Y-88900000D03*
%TD*%
D17*
%TO.P,JC5,1,Pin_1*%
%TO.N,VCC*%
X157480000Y-63500000D03*
D11*
%TO.P,JC5,2,Pin_2*%
%TO.N,unconnected-(JC5-Pad2)*%
X157480000Y-58420000D03*
%TD*%
D18*
%TO.P,D1,1,K*%
%TO.N,Net-(R4-Pad1)*%
X137160000Y-45720000D03*
D14*
%TO.P,D1,2,A*%
%TO.N,GND*%
X137160000Y-53340000D03*
%TD*%
D15*
%TO.P,BMP280,1,Pin_1*%
%TO.N,SDA*%
X109220000Y-53340000D03*
D16*
%TO.P,BMP280,2,Pin_2*%
%TO.N,SCL*%
X109220000Y-50800000D03*
%TO.P,BMP280,3,Pin_3*%
%TO.N,VCC*%
X109220000Y-48260000D03*
%TO.P,BMP280,4,Pin_4*%
%TO.N,GND*%
X109220000Y-45720000D03*
%TD*%
D13*
%TO.P,R3,1*%
%TO.N,DS18B20 Sensor*%
X149860000Y-88900000D03*
D14*
%TO.P,R3,2*%
%TO.N,VCC*%
X149860000Y-81280000D03*
%TD*%
D13*
%TO.P,R6,1*%
%TO.N,Net-(R6-Pad1)*%
X124460000Y-53340000D03*
D14*
%TO.P,R6,2*%
%TO.N,VCC*%
X132080000Y-53340000D03*
%TD*%
D13*
%TO.P,R5,1*%
%TO.N,Net-(U2-Pad1)*%
X124460000Y-45720000D03*
D14*
%TO.P,R5,2*%
%TO.N,Net-(R4-Pad1)*%
X132080000Y-45720000D03*
%TD*%
D15*
%TO.P,I2C1,1,Pin_1*%
%TO.N,SDA*%
X99060000Y-53340000D03*
D16*
%TO.P,I2C1,2,Pin_2*%
%TO.N,SCL*%
X99060000Y-50800000D03*
%TO.P,I2C1,3,Pin_3*%
%TO.N,VCC*%
X99060000Y-48260000D03*
%TO.P,I2C1,4,Pin_4*%
%TO.N,GND*%
X99060000Y-45720000D03*
%TD*%
D13*
%TO.P,R2,1*%
%TO.N,FAE31020 Sensor*%
X149860000Y-53340000D03*
D14*
%TO.P,R2,2*%
%TO.N,VCC*%
X142240000Y-53340000D03*
%TD*%
D19*
%TO.N,VCC*%
X109220000Y-48260000D02*
X104140000Y-48260000D01*
X99060000Y-48260000D02*
X104140000Y-48260000D01*
%TO.N,SCL*%
X99060000Y-50800000D02*
X104140000Y-50800000D01*
X109220000Y-50800000D02*
X104140000Y-50800000D01*
%TO.N,SDA*%
X104140000Y-53340000D02*
X109220000Y-53340000D01*
X99060000Y-53340000D02*
X104140000Y-53340000D01*
%TO.N,Net-(U2-Pad1)*%
X124440000Y-45740000D02*
X124460000Y-45720000D01*
X119380000Y-45740000D02*
X124440000Y-45740000D01*
%TO.N,Net-(R4-Pad1)*%
X137160000Y-45720000D02*
X142240000Y-45720000D01*
X132080000Y-45720000D02*
X137160000Y-45720000D01*
%TO.N,FAE31020 Sensor*%
X157480000Y-53340000D02*
X149860000Y-53340000D01*
%TO.N,Alternator W*%
X154940000Y-45720000D02*
X157480000Y-48260000D01*
X149860000Y-45720000D02*
X154940000Y-45720000D01*
%TO.N,DS18B20 Sensor*%
X153670000Y-72390000D02*
X157480000Y-68580000D01*
X153670000Y-85090000D02*
X153670000Y-72390000D01*
X149860000Y-88900000D02*
X153670000Y-85090000D01*
X145955000Y-84995000D02*
X149860000Y-88900000D01*
X144780000Y-84995000D02*
X145955000Y-84995000D01*
D20*
%TO.N,Net-(JUSB_Conv1-Pad2)*%
X106680000Y-88900000D02*
X96520000Y-88900000D01*
%TO.N,Net-(JC12V1-Pad1)*%
X99060000Y-86360000D02*
X96520000Y-83820000D01*
X106680000Y-86360000D02*
X99060000Y-86360000D01*
D19*
%TO.N,Tank_Gauge*%
X106680000Y-66040000D02*
X96520000Y-66040000D01*
X108045000Y-64675000D02*
X106680000Y-66040000D01*
X114300000Y-64675000D02*
X108045000Y-64675000D01*
%TO.N,Net-(R6-Pad1)*%
X133445000Y-58420000D02*
X144780000Y-69755000D01*
X129540000Y-58420000D02*
X133445000Y-58420000D01*
X124460000Y-53340000D02*
X129540000Y-58420000D01*
X119380000Y-53360000D02*
X124440000Y-53360000D01*
X124440000Y-53360000D02*
X124460000Y-53340000D01*
%TD*%
%TA.AperFunction,Conductor*%
%TO.N,VCC*%
G36*
X114315931Y-47010002D02*
G01*
X114336905Y-47026905D01*
X115570000Y-48260000D01*
X130757810Y-48260000D01*
X130825931Y-48280002D01*
X130846905Y-48296905D01*
X133313095Y-50763095D01*
X133347121Y-50825407D01*
X133350000Y-50852190D01*
X133350000Y-52473699D01*
X133329998Y-52541820D01*
X133276342Y-52588313D01*
X133206068Y-52598417D01*
X133141488Y-52568923D01*
X133120787Y-52545970D01*
X133088972Y-52500533D01*
X133081916Y-52492125D01*
X132927875Y-52338084D01*
X132919467Y-52331028D01*
X132741007Y-52206069D01*
X132731511Y-52200586D01*
X132534053Y-52108510D01*
X132523761Y-52104764D01*
X132351497Y-52058606D01*
X132337401Y-52058942D01*
X132334000Y-52066884D01*
X132334000Y-54607967D01*
X132337973Y-54621498D01*
X132346522Y-54622727D01*
X132523761Y-54575236D01*
X132534053Y-54571490D01*
X132731511Y-54479414D01*
X132741007Y-54473931D01*
X132919467Y-54348972D01*
X132927875Y-54341916D01*
X133081916Y-54187875D01*
X133088972Y-54179467D01*
X133120787Y-54134030D01*
X133176244Y-54089702D01*
X133246863Y-54082393D01*
X133310224Y-54114424D01*
X133346209Y-54175625D01*
X133350000Y-54206301D01*
X133350000Y-54610000D01*
X134620000Y-55880000D01*
X138430000Y-55880000D01*
X139700000Y-54610000D01*
X139700000Y-53606522D01*
X140957273Y-53606522D01*
X141004764Y-53783761D01*
X141008510Y-53794053D01*
X141100586Y-53991511D01*
X141106069Y-54001007D01*
X141231028Y-54179467D01*
X141238084Y-54187875D01*
X141392125Y-54341916D01*
X141400533Y-54348972D01*
X141578993Y-54473931D01*
X141588489Y-54479414D01*
X141785947Y-54571490D01*
X141796239Y-54575236D01*
X141968503Y-54621394D01*
X141982599Y-54621058D01*
X141986000Y-54613116D01*
X141986000Y-54607967D01*
X142494000Y-54607967D01*
X142497973Y-54621498D01*
X142506522Y-54622727D01*
X142683761Y-54575236D01*
X142694053Y-54571490D01*
X142891511Y-54479414D01*
X142901007Y-54473931D01*
X143079467Y-54348972D01*
X143087875Y-54341916D01*
X143241916Y-54187875D01*
X143248972Y-54179467D01*
X143373931Y-54001007D01*
X143379414Y-53991511D01*
X143471490Y-53794053D01*
X143475236Y-53783761D01*
X143521394Y-53611497D01*
X143521058Y-53597401D01*
X143513116Y-53594000D01*
X142512115Y-53594000D01*
X142496876Y-53598475D01*
X142495671Y-53599865D01*
X142494000Y-53607548D01*
X142494000Y-54607967D01*
X141986000Y-54607967D01*
X141986000Y-53612115D01*
X141981525Y-53596876D01*
X141980135Y-53595671D01*
X141972452Y-53594000D01*
X140972033Y-53594000D01*
X140958502Y-53597973D01*
X140957273Y-53606522D01*
X139700000Y-53606522D01*
X139700000Y-53068503D01*
X140958606Y-53068503D01*
X140958942Y-53082599D01*
X140966884Y-53086000D01*
X141967885Y-53086000D01*
X141983124Y-53081525D01*
X141984329Y-53080135D01*
X141986000Y-53072452D01*
X141986000Y-53067885D01*
X142494000Y-53067885D01*
X142498475Y-53083124D01*
X142499865Y-53084329D01*
X142507548Y-53086000D01*
X143507967Y-53086000D01*
X143521498Y-53082027D01*
X143522727Y-53073478D01*
X143475236Y-52896239D01*
X143471490Y-52885947D01*
X143379414Y-52688489D01*
X143373931Y-52678993D01*
X143248972Y-52500533D01*
X143241916Y-52492125D01*
X143087875Y-52338084D01*
X143079467Y-52331028D01*
X142901007Y-52206069D01*
X142891511Y-52200586D01*
X142694053Y-52108510D01*
X142683761Y-52104764D01*
X142511497Y-52058606D01*
X142497401Y-52058942D01*
X142494000Y-52066884D01*
X142494000Y-53067885D01*
X141986000Y-53067885D01*
X141986000Y-52072033D01*
X141982027Y-52058502D01*
X141973478Y-52057273D01*
X141796239Y-52104764D01*
X141785947Y-52108510D01*
X141588489Y-52200586D01*
X141578993Y-52206069D01*
X141400533Y-52331028D01*
X141392125Y-52338084D01*
X141238084Y-52492125D01*
X141231028Y-52500533D01*
X141106069Y-52678993D01*
X141100586Y-52688489D01*
X141008510Y-52885947D01*
X141004764Y-52896239D01*
X140958606Y-53068503D01*
X139700000Y-53068503D01*
X139700000Y-52122190D01*
X139720002Y-52054069D01*
X139736905Y-52033095D01*
X140933095Y-50836905D01*
X140995407Y-50802879D01*
X141022190Y-50800000D01*
X143457810Y-50800000D01*
X143525931Y-50820002D01*
X143546905Y-50836905D01*
X144743095Y-52033095D01*
X144777121Y-52095407D01*
X144780000Y-52122190D01*
X144780000Y-57150000D01*
X146050000Y-58420000D01*
X152347810Y-58420000D01*
X152415931Y-58440002D01*
X152436905Y-58456905D01*
X154940000Y-60960000D01*
X158697810Y-60960000D01*
X158765931Y-60980002D01*
X158786905Y-60996905D01*
X159066905Y-61276905D01*
X159100931Y-61339217D01*
X159095866Y-61410032D01*
X159053319Y-61466868D01*
X158986799Y-61491679D01*
X158977810Y-61492000D01*
X157752115Y-61492000D01*
X157736876Y-61496475D01*
X157735671Y-61497865D01*
X157734000Y-61505548D01*
X157734000Y-63227885D01*
X157738475Y-63243124D01*
X157739865Y-63244329D01*
X157747548Y-63246000D01*
X159469884Y-63246000D01*
X159485123Y-63241525D01*
X159486328Y-63240135D01*
X159487999Y-63232452D01*
X159487999Y-62002189D01*
X159508001Y-61934068D01*
X159561657Y-61887575D01*
X159631931Y-61877471D01*
X159696511Y-61906965D01*
X159703094Y-61913094D01*
X159983095Y-62193095D01*
X160017121Y-62255407D01*
X160020000Y-62282190D01*
X160020000Y-64717810D01*
X159999998Y-64785931D01*
X159983095Y-64806905D01*
X159703095Y-65086905D01*
X159640783Y-65120931D01*
X159569968Y-65115866D01*
X159513132Y-65073319D01*
X159488321Y-65006799D01*
X159488000Y-64997810D01*
X159488000Y-63772115D01*
X159483525Y-63756876D01*
X159482135Y-63755671D01*
X159474452Y-63754000D01*
X157752115Y-63754000D01*
X157736876Y-63758475D01*
X157735671Y-63759865D01*
X157734000Y-63767548D01*
X157734000Y-65489884D01*
X157738475Y-65505123D01*
X157739865Y-65506328D01*
X157747548Y-65507999D01*
X158977811Y-65507999D01*
X159045932Y-65528001D01*
X159092425Y-65581657D01*
X159102529Y-65651931D01*
X159073035Y-65716511D01*
X159066906Y-65723094D01*
X158786905Y-66003095D01*
X158724593Y-66037121D01*
X158697810Y-66040000D01*
X155575000Y-66040000D01*
X151130000Y-71120000D01*
X151130000Y-80413699D01*
X151109998Y-80481820D01*
X151056342Y-80528313D01*
X150986068Y-80538417D01*
X150921488Y-80508923D01*
X150900787Y-80485970D01*
X150868972Y-80440533D01*
X150861916Y-80432125D01*
X150707875Y-80278084D01*
X150699467Y-80271028D01*
X150521007Y-80146069D01*
X150511511Y-80140586D01*
X150314053Y-80048510D01*
X150303761Y-80044764D01*
X150131497Y-79998606D01*
X150117401Y-79998942D01*
X150114000Y-80006884D01*
X150114000Y-81408000D01*
X150093998Y-81476121D01*
X150040342Y-81522614D01*
X149988000Y-81534000D01*
X149732000Y-81534000D01*
X149663879Y-81513998D01*
X149617386Y-81460342D01*
X149606000Y-81408000D01*
X149606000Y-80012033D01*
X149602027Y-79998502D01*
X149593478Y-79997273D01*
X149416239Y-80044764D01*
X149405947Y-80048510D01*
X149208489Y-80140586D01*
X149198993Y-80146069D01*
X149020533Y-80271028D01*
X149012125Y-80278084D01*
X148858084Y-80432125D01*
X148851028Y-80440533D01*
X148819213Y-80485970D01*
X148763756Y-80530298D01*
X148693137Y-80537607D01*
X148629776Y-80505576D01*
X148593791Y-80444375D01*
X148590000Y-80413699D01*
X148590000Y-66040000D01*
X148258223Y-65044669D01*
X155472001Y-65044669D01*
X155472371Y-65051490D01*
X155477895Y-65102352D01*
X155481521Y-65117604D01*
X155526676Y-65238054D01*
X155535214Y-65253649D01*
X155611715Y-65355724D01*
X155624276Y-65368285D01*
X155726351Y-65444786D01*
X155741946Y-65453324D01*
X155862394Y-65498478D01*
X155877649Y-65502105D01*
X155928514Y-65507631D01*
X155935328Y-65508000D01*
X157207885Y-65508000D01*
X157223124Y-65503525D01*
X157224329Y-65502135D01*
X157226000Y-65494452D01*
X157226000Y-63772115D01*
X157221525Y-63756876D01*
X157220135Y-63755671D01*
X157212452Y-63754000D01*
X155490116Y-63754000D01*
X155474877Y-63758475D01*
X155473672Y-63759865D01*
X155472001Y-63767548D01*
X155472001Y-65044669D01*
X148258223Y-65044669D01*
X148095096Y-64555288D01*
X147652629Y-63227885D01*
X155472000Y-63227885D01*
X155476475Y-63243124D01*
X155477865Y-63244329D01*
X155485548Y-63246000D01*
X157207885Y-63246000D01*
X157223124Y-63241525D01*
X157224329Y-63240135D01*
X157226000Y-63232452D01*
X157226000Y-61510116D01*
X157221525Y-61494877D01*
X157220135Y-61493672D01*
X157212452Y-61492001D01*
X155935331Y-61492001D01*
X155928510Y-61492371D01*
X155877648Y-61497895D01*
X155862396Y-61501521D01*
X155741946Y-61546676D01*
X155726351Y-61555214D01*
X155624276Y-61631715D01*
X155611715Y-61644276D01*
X155535214Y-61746351D01*
X155526676Y-61761946D01*
X155481522Y-61882394D01*
X155477895Y-61897649D01*
X155472369Y-61948514D01*
X155472000Y-61955328D01*
X155472000Y-63227885D01*
X147652629Y-63227885D01*
X147325729Y-62247186D01*
X147325728Y-62247185D01*
X147320000Y-62230000D01*
X143510000Y-62230000D01*
X141184712Y-64555288D01*
X141122400Y-64589314D01*
X141051585Y-64584249D01*
X141006522Y-64555288D01*
X134201855Y-57750621D01*
X134192753Y-57740478D01*
X134172897Y-57715782D01*
X134169032Y-57710975D01*
X134130578Y-57678708D01*
X134126931Y-57675528D01*
X134125119Y-57673885D01*
X134122925Y-57671691D01*
X134089651Y-57644358D01*
X134088853Y-57643696D01*
X134017526Y-57583846D01*
X134012856Y-57581278D01*
X134008739Y-57577897D01*
X133926914Y-57534023D01*
X133925755Y-57533394D01*
X133849619Y-57491538D01*
X133849611Y-57491535D01*
X133844213Y-57488567D01*
X133839131Y-57486955D01*
X133834437Y-57484438D01*
X133745469Y-57457238D01*
X133744441Y-57456918D01*
X133655694Y-57428765D01*
X133650398Y-57428171D01*
X133645302Y-57426613D01*
X133552743Y-57417210D01*
X133551607Y-57417089D01*
X133517992Y-57413319D01*
X133505270Y-57411892D01*
X133505266Y-57411892D01*
X133501773Y-57411500D01*
X133498246Y-57411500D01*
X133497261Y-57411445D01*
X133491581Y-57410998D01*
X133462175Y-57408011D01*
X133454663Y-57407248D01*
X133454661Y-57407248D01*
X133448538Y-57406626D01*
X133406259Y-57410623D01*
X133402891Y-57410941D01*
X133391033Y-57411500D01*
X130009925Y-57411500D01*
X129941804Y-57391498D01*
X129920830Y-57374595D01*
X126152756Y-53606522D01*
X130797273Y-53606522D01*
X130844764Y-53783761D01*
X130848510Y-53794053D01*
X130940586Y-53991511D01*
X130946069Y-54001007D01*
X131071028Y-54179467D01*
X131078084Y-54187875D01*
X131232125Y-54341916D01*
X131240533Y-54348972D01*
X131418993Y-54473931D01*
X131428489Y-54479414D01*
X131625947Y-54571490D01*
X131636239Y-54575236D01*
X131808503Y-54621394D01*
X131822599Y-54621058D01*
X131826000Y-54613116D01*
X131826000Y-53612115D01*
X131821525Y-53596876D01*
X131820135Y-53595671D01*
X131812452Y-53594000D01*
X130812033Y-53594000D01*
X130798502Y-53597973D01*
X130797273Y-53606522D01*
X126152756Y-53606522D01*
X125795118Y-53248884D01*
X125761092Y-53186572D01*
X125758692Y-53170770D01*
X125755772Y-53137393D01*
X125753543Y-53111913D01*
X125741911Y-53068503D01*
X130798606Y-53068503D01*
X130798942Y-53082599D01*
X130806884Y-53086000D01*
X131807885Y-53086000D01*
X131823124Y-53081525D01*
X131824329Y-53080135D01*
X131826000Y-53072452D01*
X131826000Y-52072033D01*
X131822027Y-52058502D01*
X131813478Y-52057273D01*
X131636239Y-52104764D01*
X131625947Y-52108510D01*
X131428489Y-52200586D01*
X131418993Y-52206069D01*
X131240533Y-52331028D01*
X131232125Y-52338084D01*
X131078084Y-52492125D01*
X131071028Y-52500533D01*
X130946069Y-52678993D01*
X130940586Y-52688489D01*
X130848510Y-52885947D01*
X130844764Y-52896239D01*
X130798606Y-53068503D01*
X125741911Y-53068503D01*
X125713947Y-52964141D01*
X125695707Y-52896067D01*
X125695706Y-52896065D01*
X125694284Y-52890757D01*
X125609175Y-52708238D01*
X125599849Y-52688238D01*
X125599846Y-52688233D01*
X125597523Y-52683251D01*
X125480202Y-52515700D01*
X125469357Y-52500211D01*
X125469355Y-52500208D01*
X125466198Y-52495700D01*
X125304300Y-52333802D01*
X125299792Y-52330645D01*
X125299789Y-52330643D01*
X125175043Y-52243295D01*
X125116749Y-52202477D01*
X125111767Y-52200154D01*
X125111762Y-52200151D01*
X124914225Y-52108039D01*
X124914224Y-52108039D01*
X124909243Y-52105716D01*
X124903935Y-52104294D01*
X124903933Y-52104293D01*
X124693402Y-52047881D01*
X124693400Y-52047881D01*
X124688087Y-52046457D01*
X124460000Y-52026502D01*
X124231913Y-52046457D01*
X124226600Y-52047881D01*
X124226598Y-52047881D01*
X124016067Y-52104293D01*
X124016065Y-52104294D01*
X124010757Y-52105716D01*
X124005776Y-52108039D01*
X124005775Y-52108039D01*
X123808238Y-52200151D01*
X123808233Y-52200154D01*
X123803251Y-52202477D01*
X123622968Y-52328713D01*
X123550697Y-52351500D01*
X120260740Y-52351500D01*
X120188469Y-52328713D01*
X120066480Y-52243295D01*
X120036749Y-52222477D01*
X120031767Y-52220154D01*
X120031762Y-52220151D01*
X119834225Y-52128039D01*
X119834224Y-52128039D01*
X119829243Y-52125716D01*
X119823935Y-52124294D01*
X119823933Y-52124293D01*
X119613402Y-52067881D01*
X119613400Y-52067881D01*
X119608087Y-52066457D01*
X119380000Y-52046502D01*
X119151913Y-52066457D01*
X119146600Y-52067881D01*
X119146598Y-52067881D01*
X118936067Y-52124293D01*
X118936065Y-52124294D01*
X118930757Y-52125716D01*
X118925776Y-52128039D01*
X118925775Y-52128039D01*
X118728238Y-52220151D01*
X118728233Y-52220154D01*
X118723251Y-52222477D01*
X118693520Y-52243295D01*
X118540211Y-52350643D01*
X118540208Y-52350645D01*
X118535700Y-52353802D01*
X118373802Y-52515700D01*
X118370645Y-52520208D01*
X118370643Y-52520211D01*
X118336535Y-52568923D01*
X118242477Y-52703251D01*
X118240154Y-52708233D01*
X118240151Y-52708238D01*
X118224195Y-52742457D01*
X118177278Y-52795742D01*
X118109001Y-52815203D01*
X118041041Y-52794661D01*
X117995805Y-52742457D01*
X117979849Y-52708238D01*
X117979846Y-52708233D01*
X117977523Y-52703251D01*
X117883465Y-52568923D01*
X117849357Y-52520211D01*
X117849355Y-52520208D01*
X117846198Y-52515700D01*
X117684300Y-52353802D01*
X117679792Y-52350645D01*
X117679789Y-52350643D01*
X117526480Y-52243295D01*
X117496749Y-52222477D01*
X117491767Y-52220154D01*
X117491762Y-52220151D01*
X117294225Y-52128039D01*
X117294224Y-52128039D01*
X117289243Y-52125716D01*
X117283935Y-52124294D01*
X117283933Y-52124293D01*
X117073402Y-52067881D01*
X117073400Y-52067881D01*
X117068087Y-52066457D01*
X116840000Y-52046502D01*
X116611913Y-52066457D01*
X116606600Y-52067881D01*
X116606598Y-52067881D01*
X116396067Y-52124293D01*
X116396065Y-52124294D01*
X116390757Y-52125716D01*
X116385776Y-52128039D01*
X116385775Y-52128039D01*
X116188238Y-52220151D01*
X116188233Y-52220154D01*
X116183251Y-52222477D01*
X116153520Y-52243295D01*
X116000211Y-52350643D01*
X116000208Y-52350645D01*
X115995700Y-52353802D01*
X115833802Y-52515700D01*
X115830645Y-52520208D01*
X115830643Y-52520211D01*
X115796535Y-52568923D01*
X115702477Y-52703251D01*
X115700154Y-52708233D01*
X115700151Y-52708238D01*
X115684195Y-52742457D01*
X115605716Y-52910757D01*
X115604294Y-52916065D01*
X115604293Y-52916067D01*
X115551816Y-53111913D01*
X115546457Y-53131913D01*
X115526502Y-53360000D01*
X115546457Y-53588087D01*
X115547881Y-53593400D01*
X115547881Y-53593402D01*
X115551672Y-53607548D01*
X115605716Y-53809243D01*
X115608039Y-53814224D01*
X115608039Y-53814225D01*
X115700151Y-54011762D01*
X115700154Y-54011767D01*
X115702477Y-54016749D01*
X115770870Y-54114424D01*
X115816414Y-54179467D01*
X115833802Y-54204300D01*
X115995700Y-54366198D01*
X116000208Y-54369355D01*
X116000211Y-54369357D01*
X116078389Y-54424098D01*
X116183251Y-54497523D01*
X116188233Y-54499846D01*
X116188238Y-54499849D01*
X116349908Y-54575236D01*
X116390757Y-54594284D01*
X116396065Y-54595706D01*
X116396067Y-54595707D01*
X116606598Y-54652119D01*
X116606600Y-54652119D01*
X116611913Y-54653543D01*
X116840000Y-54673498D01*
X117068087Y-54653543D01*
X117073400Y-54652119D01*
X117073402Y-54652119D01*
X117283933Y-54595707D01*
X117283935Y-54595706D01*
X117289243Y-54594284D01*
X117330092Y-54575236D01*
X117491762Y-54499849D01*
X117491767Y-54499846D01*
X117496749Y-54497523D01*
X117601611Y-54424098D01*
X117679789Y-54369357D01*
X117679792Y-54369355D01*
X117684300Y-54366198D01*
X117846198Y-54204300D01*
X117863587Y-54179467D01*
X117909130Y-54114424D01*
X117977523Y-54016749D01*
X117979846Y-54011767D01*
X117979849Y-54011762D01*
X117995805Y-53977543D01*
X118042722Y-53924258D01*
X118110999Y-53904797D01*
X118178959Y-53925339D01*
X118224195Y-53977543D01*
X118240151Y-54011762D01*
X118240154Y-54011767D01*
X118242477Y-54016749D01*
X118310870Y-54114424D01*
X118356414Y-54179467D01*
X118373802Y-54204300D01*
X118535700Y-54366198D01*
X118540208Y-54369355D01*
X118540211Y-54369357D01*
X118618389Y-54424098D01*
X118723251Y-54497523D01*
X118728233Y-54499846D01*
X118728238Y-54499849D01*
X118889908Y-54575236D01*
X118930757Y-54594284D01*
X118936065Y-54595706D01*
X118936067Y-54595707D01*
X119146598Y-54652119D01*
X119146600Y-54652119D01*
X119151913Y-54653543D01*
X119380000Y-54673498D01*
X119608087Y-54653543D01*
X119613400Y-54652119D01*
X119613402Y-54652119D01*
X119823933Y-54595707D01*
X119823935Y-54595706D01*
X119829243Y-54594284D01*
X119870092Y-54575236D01*
X120031762Y-54499849D01*
X120031767Y-54499846D01*
X120036749Y-54497523D01*
X120188469Y-54391287D01*
X120260740Y-54368500D01*
X123607822Y-54368500D01*
X123680093Y-54391287D01*
X123803251Y-54477523D01*
X123808233Y-54479846D01*
X123808238Y-54479849D01*
X124004765Y-54571490D01*
X124010757Y-54574284D01*
X124016065Y-54575706D01*
X124016067Y-54575707D01*
X124076728Y-54591961D01*
X124231913Y-54633543D01*
X124290769Y-54638692D01*
X124356887Y-54664555D01*
X124368883Y-54675118D01*
X128783145Y-59089379D01*
X128792247Y-59099522D01*
X128815968Y-59129025D01*
X128820696Y-59132992D01*
X128854421Y-59161291D01*
X128858069Y-59164472D01*
X128859881Y-59166115D01*
X128862075Y-59168309D01*
X128895349Y-59195642D01*
X128896147Y-59196304D01*
X128967474Y-59256154D01*
X128972144Y-59258722D01*
X128976261Y-59262103D01*
X129034145Y-59293140D01*
X129058086Y-59305977D01*
X129059245Y-59306606D01*
X129135381Y-59348462D01*
X129135389Y-59348465D01*
X129140787Y-59351433D01*
X129145869Y-59353045D01*
X129150563Y-59355562D01*
X129156454Y-59357363D01*
X129239477Y-59382747D01*
X129240735Y-59383139D01*
X129329306Y-59411235D01*
X129334597Y-59411829D01*
X129339698Y-59413388D01*
X129432263Y-59422790D01*
X129433450Y-59422916D01*
X129462838Y-59426213D01*
X129479730Y-59428108D01*
X129479735Y-59428108D01*
X129483227Y-59428500D01*
X129486752Y-59428500D01*
X129487737Y-59428555D01*
X129493432Y-59429003D01*
X129505342Y-59430213D01*
X129530334Y-59432752D01*
X129530339Y-59432752D01*
X129536462Y-59433374D01*
X129582108Y-59429059D01*
X129593967Y-59428500D01*
X132975075Y-59428500D01*
X133043196Y-59448502D01*
X133064170Y-59465405D01*
X137732378Y-64133612D01*
X140933095Y-67334329D01*
X140967121Y-67396641D01*
X140970000Y-67423424D01*
X140970000Y-83767810D01*
X140949998Y-83835931D01*
X140933095Y-83856905D01*
X137196905Y-87593095D01*
X137134593Y-87627121D01*
X137107810Y-87630000D01*
X111812190Y-87630000D01*
X111744069Y-87609998D01*
X111723095Y-87593095D01*
X110714654Y-86584654D01*
X113075618Y-86584654D01*
X113082673Y-86594627D01*
X113113679Y-86620551D01*
X113120598Y-86625579D01*
X113345272Y-86766515D01*
X113352807Y-86770556D01*
X113594520Y-86879694D01*
X113602551Y-86882680D01*
X113856832Y-86958002D01*
X113865184Y-86959869D01*
X114127340Y-86999984D01*
X114135874Y-87000700D01*
X114401045Y-87004867D01*
X114409596Y-87004418D01*
X114672883Y-86972557D01*
X114681284Y-86970955D01*
X114937824Y-86903653D01*
X114945926Y-86900926D01*
X115190949Y-86799434D01*
X115198617Y-86795628D01*
X115427598Y-86661822D01*
X115434679Y-86657009D01*
X115514655Y-86594301D01*
X115523125Y-86582442D01*
X115516608Y-86570818D01*
X114312812Y-85367022D01*
X114298868Y-85359408D01*
X114297035Y-85359539D01*
X114290420Y-85363790D01*
X113082910Y-86571300D01*
X113075618Y-86584654D01*
X110714654Y-86584654D01*
X110526905Y-86396905D01*
X110492879Y-86334593D01*
X110490000Y-86307810D01*
X110490000Y-84978204D01*
X112287665Y-84978204D01*
X112302932Y-85242969D01*
X112304005Y-85251470D01*
X112355065Y-85511722D01*
X112357276Y-85519974D01*
X112443184Y-85770894D01*
X112446499Y-85778779D01*
X112565664Y-86015713D01*
X112570020Y-86023079D01*
X112699347Y-86211250D01*
X112709601Y-86219594D01*
X112723342Y-86212448D01*
X113927978Y-85007812D01*
X113934356Y-84996132D01*
X114664408Y-84996132D01*
X114664539Y-84997965D01*
X114668790Y-85004580D01*
X115875730Y-86211520D01*
X115887939Y-86218187D01*
X115899439Y-86209497D01*
X115996831Y-86076913D01*
X116001418Y-86069685D01*
X116127962Y-85836621D01*
X116131530Y-85828827D01*
X116225271Y-85580750D01*
X116227748Y-85572544D01*
X116286954Y-85314038D01*
X116288294Y-85305577D01*
X116312031Y-85039616D01*
X116312277Y-85034677D01*
X116312666Y-84997485D01*
X116312523Y-84992519D01*
X116294362Y-84726123D01*
X116293201Y-84717649D01*
X116239419Y-84457944D01*
X116237120Y-84449709D01*
X116148588Y-84199705D01*
X116145191Y-84191854D01*
X116023550Y-83956178D01*
X116019122Y-83948866D01*
X115900031Y-83779417D01*
X115889509Y-83771037D01*
X115876121Y-83778089D01*
X114672022Y-84982188D01*
X114664408Y-84996132D01*
X113934356Y-84996132D01*
X113935592Y-84993868D01*
X113935461Y-84992035D01*
X113931210Y-84985420D01*
X112723814Y-83778024D01*
X112711804Y-83771466D01*
X112700064Y-83780434D01*
X112591935Y-83930911D01*
X112587418Y-83938196D01*
X112463325Y-84172567D01*
X112459839Y-84180395D01*
X112368700Y-84429446D01*
X112366311Y-84437670D01*
X112309812Y-84696795D01*
X112308563Y-84705250D01*
X112287754Y-84969653D01*
X112287665Y-84978204D01*
X110490000Y-84978204D01*
X110490000Y-83872190D01*
X110510002Y-83804069D01*
X110526905Y-83783095D01*
X110902500Y-83407500D01*
X113076584Y-83407500D01*
X113082980Y-83418770D01*
X114287188Y-84622978D01*
X114301132Y-84630592D01*
X114302965Y-84630461D01*
X114309580Y-84626210D01*
X115516604Y-83419186D01*
X115523795Y-83406017D01*
X115516473Y-83395780D01*
X115469233Y-83357115D01*
X115462261Y-83352160D01*
X115236122Y-83213582D01*
X115228552Y-83209624D01*
X114985704Y-83103022D01*
X114977644Y-83100120D01*
X114722592Y-83027467D01*
X114714214Y-83025685D01*
X114451656Y-82988318D01*
X114443111Y-82987691D01*
X114177908Y-82986302D01*
X114169374Y-82986839D01*
X113906433Y-83021456D01*
X113898035Y-83023149D01*
X113642238Y-83093127D01*
X113634143Y-83095946D01*
X113390199Y-83199997D01*
X113382577Y-83203881D01*
X113155013Y-83340075D01*
X113147981Y-83344962D01*
X113085053Y-83395377D01*
X113076584Y-83407500D01*
X110902500Y-83407500D01*
X111723095Y-82586905D01*
X111785407Y-82552879D01*
X111812190Y-82550000D01*
X118110000Y-82550000D01*
X118065895Y-71303134D01*
X123721500Y-71303134D01*
X123728255Y-71365316D01*
X123779385Y-71501705D01*
X123866739Y-71618261D01*
X123983295Y-71705615D01*
X124119684Y-71756745D01*
X124181866Y-71763500D01*
X127278134Y-71763500D01*
X127340316Y-71756745D01*
X127476705Y-71705615D01*
X127593261Y-71618261D01*
X127680615Y-71501705D01*
X127731745Y-71365316D01*
X127738500Y-71303134D01*
X131341500Y-71303134D01*
X131348255Y-71365316D01*
X131399385Y-71501705D01*
X131486739Y-71618261D01*
X131603295Y-71705615D01*
X131739684Y-71756745D01*
X131801866Y-71763500D01*
X134898134Y-71763500D01*
X134960316Y-71756745D01*
X135096705Y-71705615D01*
X135213261Y-71618261D01*
X135300615Y-71501705D01*
X135351745Y-71365316D01*
X135358500Y-71303134D01*
X135358500Y-68206866D01*
X135351745Y-68144684D01*
X135300615Y-68008295D01*
X135213261Y-67891739D01*
X135096705Y-67804385D01*
X134960316Y-67753255D01*
X134898134Y-67746500D01*
X131801866Y-67746500D01*
X131739684Y-67753255D01*
X131603295Y-67804385D01*
X131486739Y-67891739D01*
X131399385Y-68008295D01*
X131348255Y-68144684D01*
X131341500Y-68206866D01*
X131341500Y-71303134D01*
X127738500Y-71303134D01*
X127738500Y-68206866D01*
X127731745Y-68144684D01*
X127680615Y-68008295D01*
X127593261Y-67891739D01*
X127476705Y-67804385D01*
X127340316Y-67753255D01*
X127278134Y-67746500D01*
X124181866Y-67746500D01*
X124119684Y-67753255D01*
X123983295Y-67804385D01*
X123866739Y-67891739D01*
X123779385Y-68008295D01*
X123728255Y-68144684D01*
X123721500Y-68206866D01*
X123721500Y-71303134D01*
X118065895Y-71303134D01*
X118045974Y-66223134D01*
X123721500Y-66223134D01*
X123728255Y-66285316D01*
X123779385Y-66421705D01*
X123866739Y-66538261D01*
X123983295Y-66625615D01*
X124119684Y-66676745D01*
X124181866Y-66683500D01*
X127278134Y-66683500D01*
X127340316Y-66676745D01*
X127476705Y-66625615D01*
X127593261Y-66538261D01*
X127680615Y-66421705D01*
X127731745Y-66285316D01*
X127738500Y-66223134D01*
X131341500Y-66223134D01*
X131348255Y-66285316D01*
X131399385Y-66421705D01*
X131486739Y-66538261D01*
X131603295Y-66625615D01*
X131739684Y-66676745D01*
X131801866Y-66683500D01*
X134898134Y-66683500D01*
X134960316Y-66676745D01*
X135096705Y-66625615D01*
X135213261Y-66538261D01*
X135300615Y-66421705D01*
X135351745Y-66285316D01*
X135358500Y-66223134D01*
X135358500Y-63126866D01*
X135351745Y-63064684D01*
X135300615Y-62928295D01*
X135213261Y-62811739D01*
X135096705Y-62724385D01*
X134960316Y-62673255D01*
X134898134Y-62666500D01*
X131801866Y-62666500D01*
X131739684Y-62673255D01*
X131603295Y-62724385D01*
X131486739Y-62811739D01*
X131399385Y-62928295D01*
X131348255Y-63064684D01*
X131341500Y-63126866D01*
X131341500Y-66223134D01*
X127738500Y-66223134D01*
X127738500Y-63126866D01*
X127731745Y-63064684D01*
X127680615Y-62928295D01*
X127593261Y-62811739D01*
X127476705Y-62724385D01*
X127340316Y-62673255D01*
X127278134Y-62666500D01*
X124181866Y-62666500D01*
X124119684Y-62673255D01*
X123983295Y-62724385D01*
X123866739Y-62811739D01*
X123779385Y-62928295D01*
X123728255Y-63064684D01*
X123721500Y-63126866D01*
X123721500Y-66223134D01*
X118045974Y-66223134D01*
X118035295Y-63500000D01*
X117788766Y-63246000D01*
X117473430Y-62921109D01*
X115570000Y-60960000D01*
X105462190Y-60960000D01*
X105394069Y-60939998D01*
X105373095Y-60923095D01*
X104176905Y-59726905D01*
X104142879Y-59664593D01*
X104140000Y-59637810D01*
X104140000Y-58686522D01*
X105397273Y-58686522D01*
X105444764Y-58863761D01*
X105448510Y-58874053D01*
X105540586Y-59071511D01*
X105546069Y-59081007D01*
X105671028Y-59259467D01*
X105678084Y-59267875D01*
X105832125Y-59421916D01*
X105840533Y-59428972D01*
X106018993Y-59553931D01*
X106028489Y-59559414D01*
X106225947Y-59651490D01*
X106236239Y-59655236D01*
X106408503Y-59701394D01*
X106422599Y-59701058D01*
X106426000Y-59693116D01*
X106426000Y-59687967D01*
X106934000Y-59687967D01*
X106937973Y-59701498D01*
X106946522Y-59702727D01*
X107123761Y-59655236D01*
X107134053Y-59651490D01*
X107331511Y-59559414D01*
X107341007Y-59553931D01*
X107519467Y-59428972D01*
X107527875Y-59421916D01*
X107681916Y-59267875D01*
X107688972Y-59259467D01*
X107813931Y-59081007D01*
X107819414Y-59071511D01*
X107911490Y-58874053D01*
X107915236Y-58863761D01*
X107961394Y-58691497D01*
X107961058Y-58677401D01*
X107953116Y-58674000D01*
X106952115Y-58674000D01*
X106936876Y-58678475D01*
X106935671Y-58679865D01*
X106934000Y-58687548D01*
X106934000Y-59687967D01*
X106426000Y-59687967D01*
X106426000Y-58692115D01*
X106421525Y-58676876D01*
X106420135Y-58675671D01*
X106412452Y-58674000D01*
X105412033Y-58674000D01*
X105398502Y-58677973D01*
X105397273Y-58686522D01*
X104140000Y-58686522D01*
X104140000Y-58148503D01*
X105398606Y-58148503D01*
X105398942Y-58162599D01*
X105406884Y-58166000D01*
X106407885Y-58166000D01*
X106423124Y-58161525D01*
X106424329Y-58160135D01*
X106426000Y-58152452D01*
X106426000Y-58147885D01*
X106934000Y-58147885D01*
X106938475Y-58163124D01*
X106939865Y-58164329D01*
X106947548Y-58166000D01*
X107947967Y-58166000D01*
X107961498Y-58162027D01*
X107962727Y-58153478D01*
X107915236Y-57976239D01*
X107911490Y-57965947D01*
X107819414Y-57768489D01*
X107813931Y-57758993D01*
X107688972Y-57580533D01*
X107681916Y-57572125D01*
X107527875Y-57418084D01*
X107519467Y-57411028D01*
X107341007Y-57286069D01*
X107331511Y-57280586D01*
X107134053Y-57188510D01*
X107123761Y-57184764D01*
X106951497Y-57138606D01*
X106937401Y-57138942D01*
X106934000Y-57146884D01*
X106934000Y-58147885D01*
X106426000Y-58147885D01*
X106426000Y-57152033D01*
X106422027Y-57138502D01*
X106413478Y-57137273D01*
X106236239Y-57184764D01*
X106225947Y-57188510D01*
X106028489Y-57280586D01*
X106018993Y-57286069D01*
X105840533Y-57411028D01*
X105832125Y-57418084D01*
X105678084Y-57572125D01*
X105671028Y-57580533D01*
X105546069Y-57758993D01*
X105540586Y-57768489D01*
X105448510Y-57965947D01*
X105444764Y-57976239D01*
X105398606Y-58148503D01*
X104140000Y-58148503D01*
X104140000Y-57202190D01*
X104160002Y-57134069D01*
X104176905Y-57113095D01*
X105373095Y-55916905D01*
X105435407Y-55882879D01*
X105462190Y-55880000D01*
X110490000Y-55880000D01*
X111760000Y-54610000D01*
X111760000Y-49530000D01*
X111451836Y-49530809D01*
X110166287Y-49534182D01*
X110098114Y-49514358D01*
X110051480Y-49460825D01*
X110041192Y-49390578D01*
X110070515Y-49325920D01*
X110092790Y-49305601D01*
X110095333Y-49303787D01*
X110103200Y-49297139D01*
X110254052Y-49146812D01*
X110260730Y-49138965D01*
X110385003Y-48966020D01*
X110390313Y-48957183D01*
X110484670Y-48766267D01*
X110488469Y-48756672D01*
X110550377Y-48552910D01*
X110552555Y-48542837D01*
X110553986Y-48531962D01*
X110551775Y-48517778D01*
X110538617Y-48514000D01*
X109092000Y-48514000D01*
X109023879Y-48493998D01*
X108977386Y-48440342D01*
X108966000Y-48388000D01*
X108966000Y-48132000D01*
X108986002Y-48063879D01*
X109039658Y-48017386D01*
X109092000Y-48006000D01*
X110538344Y-48006000D01*
X110551875Y-48002027D01*
X110553180Y-47992947D01*
X110511214Y-47825875D01*
X110507894Y-47816124D01*
X110422972Y-47620814D01*
X110418105Y-47611739D01*
X110302426Y-47432926D01*
X110296136Y-47424757D01*
X110152806Y-47267240D01*
X110145273Y-47260216D01*
X110087870Y-47214882D01*
X110046807Y-47156966D01*
X110043575Y-47086043D01*
X110079200Y-47024631D01*
X110142371Y-46992228D01*
X110165962Y-46990000D01*
X114247810Y-46990000D01*
X114315931Y-47010002D01*
G37*
%TD.AperFunction*%
%TD*%
M02*
