%TF.GenerationSoftware,KiCad,Pcbnew,(6.0.7)*%
%TF.CreationDate,2023-01-13T08:14:30+01:00*%
%TF.ProjectId,VolvoPenta Digitalization,566f6c76-6f50-4656-9e74-612044696769,rev?*%
%TF.SameCoordinates,Original*%
%TF.FileFunction,Soldermask,Bot*%
%TF.FilePolarity,Negative*%
%FSLAX46Y46*%
G04 Gerber Fmt 4.6, Leading zero omitted, Abs format (unit mm)*
G04 Created by KiCad (PCBNEW (6.0.7)) date 2023-01-13 08:14:30*
%MOMM*%
%LPD*%
G01*
G04 APERTURE LIST*
%ADD10C,3.000000*%
%ADD11C,1.600000*%
%ADD12O,1.600000X1.600000*%
%ADD13R,1.700000X1.700000*%
%ADD14O,1.700000X1.700000*%
%ADD15R,3.000000X3.000000*%
%ADD16R,1.600000X1.600000*%
G04 APERTURE END LIST*
D10*
%TO.C,U1*%
X114300000Y-84995000D03*
X114300000Y-74835000D03*
X114300000Y-69755000D03*
X114300000Y-64675000D03*
X144780000Y-64675000D03*
X144780000Y-69755000D03*
X144780000Y-74835000D03*
X144780000Y-79915000D03*
X144780000Y-84995000D03*
X114300000Y-79915000D03*
X118110000Y-91345000D03*
X140970000Y-91345000D03*
%TD*%
D11*
%TO.C,R1*%
X106680000Y-66040000D03*
D12*
X106680000Y-58420000D03*
%TD*%
D13*
%TO.C,SSD1306*%
X104140000Y-53340000D03*
D14*
X104140000Y-50800000D03*
X104140000Y-48260000D03*
X104140000Y-45720000D03*
%TD*%
D11*
%TO.C,R4*%
X142240000Y-45720000D03*
D12*
X149860000Y-45720000D03*
%TD*%
D15*
%TO.C,JC3*%
X157480000Y-53340000D03*
D10*
X157480000Y-48260000D03*
%TD*%
D15*
%TO.C,JC4*%
X157480000Y-73660000D03*
D10*
X157480000Y-68580000D03*
%TD*%
D15*
%TO.C,JC2*%
X96520000Y-60960000D03*
D10*
X96520000Y-66040000D03*
%TD*%
D16*
%TO.C,U2*%
X119380000Y-45740000D03*
D12*
X116840000Y-45740000D03*
X116840000Y-53360000D03*
X119380000Y-53360000D03*
%TD*%
D15*
%TO.C,JC12V1*%
X96520000Y-83820000D03*
D10*
X96520000Y-88900000D03*
%TD*%
D13*
%TO.C,JUSB_Conv1*%
X106680000Y-86360000D03*
D14*
X106680000Y-88900000D03*
%TD*%
D15*
%TO.C,JC5*%
X157480000Y-63500000D03*
D10*
X157480000Y-58420000D03*
%TD*%
D16*
%TO.C,D1*%
X137160000Y-45720000D03*
D12*
X137160000Y-53340000D03*
%TD*%
D13*
%TO.C,BMP280*%
X109220000Y-53340000D03*
D14*
X109220000Y-50800000D03*
X109220000Y-48260000D03*
X109220000Y-45720000D03*
%TD*%
D11*
%TO.C,R3*%
X149860000Y-88900000D03*
D12*
X149860000Y-81280000D03*
%TD*%
D11*
%TO.C,R6*%
X124460000Y-53340000D03*
D12*
X132080000Y-53340000D03*
%TD*%
D11*
%TO.C,R5*%
X124460000Y-45720000D03*
D12*
X132080000Y-45720000D03*
%TD*%
D13*
%TO.C,I2C1*%
X99060000Y-53340000D03*
D14*
X99060000Y-50800000D03*
X99060000Y-48260000D03*
X99060000Y-45720000D03*
%TD*%
D11*
%TO.C,R2*%
X149860000Y-53340000D03*
D12*
X142240000Y-53340000D03*
%TD*%
M02*
