%TF.GenerationSoftware,KiCad,Pcbnew,(6.0.7)*%
%TF.CreationDate,2023-01-13T08:14:30+01:00*%
%TF.ProjectId,VolvoPenta Digitalization,566f6c76-6f50-4656-9e74-612044696769,rev?*%
%TF.SameCoordinates,Original*%
%TF.FileFunction,Legend,Top*%
%TF.FilePolarity,Positive*%
%FSLAX46Y46*%
G04 Gerber Fmt 4.6, Leading zero omitted, Abs format (unit mm)*
G04 Created by KiCad (PCBNEW (6.0.7)) date 2023-01-13 08:14:30*
%MOMM*%
%LPD*%
G01*
G04 APERTURE LIST*
%ADD10C,0.150000*%
%ADD11C,0.120000*%
G04 APERTURE END LIST*
D10*
%TO.C,U1*%
X128778095Y-94107380D02*
X128778095Y-94916904D01*
X128825714Y-95012142D01*
X128873333Y-95059761D01*
X128968571Y-95107380D01*
X129159047Y-95107380D01*
X129254285Y-95059761D01*
X129301904Y-95012142D01*
X129349523Y-94916904D01*
X129349523Y-94107380D01*
X130349523Y-95107380D02*
X129778095Y-95107380D01*
X130063809Y-95107380D02*
X130063809Y-94107380D01*
X129968571Y-94250238D01*
X129873333Y-94345476D01*
X129778095Y-94393095D01*
%TO.C,R1*%
X104762380Y-62396666D02*
X104286190Y-62730000D01*
X104762380Y-62968095D02*
X103762380Y-62968095D01*
X103762380Y-62587142D01*
X103810000Y-62491904D01*
X103857619Y-62444285D01*
X103952857Y-62396666D01*
X104095714Y-62396666D01*
X104190952Y-62444285D01*
X104238571Y-62491904D01*
X104286190Y-62587142D01*
X104286190Y-62968095D01*
X104762380Y-61444285D02*
X104762380Y-62015714D01*
X104762380Y-61730000D02*
X103762380Y-61730000D01*
X103905238Y-61825238D01*
X104000476Y-61920476D01*
X104048095Y-62015714D01*
%TO.C,SSD1306*%
X107084761Y-55236666D02*
X107132380Y-55093809D01*
X107132380Y-54855714D01*
X107084761Y-54760476D01*
X107037142Y-54712857D01*
X106941904Y-54665238D01*
X106846666Y-54665238D01*
X106751428Y-54712857D01*
X106703809Y-54760476D01*
X106656190Y-54855714D01*
X106608571Y-55046190D01*
X106560952Y-55141428D01*
X106513333Y-55189047D01*
X106418095Y-55236666D01*
X106322857Y-55236666D01*
X106227619Y-55189047D01*
X106180000Y-55141428D01*
X106132380Y-55046190D01*
X106132380Y-54808095D01*
X106180000Y-54665238D01*
X107084761Y-54284285D02*
X107132380Y-54141428D01*
X107132380Y-53903333D01*
X107084761Y-53808095D01*
X107037142Y-53760476D01*
X106941904Y-53712857D01*
X106846666Y-53712857D01*
X106751428Y-53760476D01*
X106703809Y-53808095D01*
X106656190Y-53903333D01*
X106608571Y-54093809D01*
X106560952Y-54189047D01*
X106513333Y-54236666D01*
X106418095Y-54284285D01*
X106322857Y-54284285D01*
X106227619Y-54236666D01*
X106180000Y-54189047D01*
X106132380Y-54093809D01*
X106132380Y-53855714D01*
X106180000Y-53712857D01*
X107132380Y-53284285D02*
X106132380Y-53284285D01*
X106132380Y-53046190D01*
X106180000Y-52903333D01*
X106275238Y-52808095D01*
X106370476Y-52760476D01*
X106560952Y-52712857D01*
X106703809Y-52712857D01*
X106894285Y-52760476D01*
X106989523Y-52808095D01*
X107084761Y-52903333D01*
X107132380Y-53046190D01*
X107132380Y-53284285D01*
X107132380Y-51760476D02*
X107132380Y-52331904D01*
X107132380Y-52046190D02*
X106132380Y-52046190D01*
X106275238Y-52141428D01*
X106370476Y-52236666D01*
X106418095Y-52331904D01*
X106132380Y-51427142D02*
X106132380Y-50808095D01*
X106513333Y-51141428D01*
X106513333Y-50998571D01*
X106560952Y-50903333D01*
X106608571Y-50855714D01*
X106703809Y-50808095D01*
X106941904Y-50808095D01*
X107037142Y-50855714D01*
X107084761Y-50903333D01*
X107132380Y-50998571D01*
X107132380Y-51284285D01*
X107084761Y-51379523D01*
X107037142Y-51427142D01*
X106132380Y-50189047D02*
X106132380Y-50093809D01*
X106180000Y-49998571D01*
X106227619Y-49950952D01*
X106322857Y-49903333D01*
X106513333Y-49855714D01*
X106751428Y-49855714D01*
X106941904Y-49903333D01*
X107037142Y-49950952D01*
X107084761Y-49998571D01*
X107132380Y-50093809D01*
X107132380Y-50189047D01*
X107084761Y-50284285D01*
X107037142Y-50331904D01*
X106941904Y-50379523D01*
X106751428Y-50427142D01*
X106513333Y-50427142D01*
X106322857Y-50379523D01*
X106227619Y-50331904D01*
X106180000Y-50284285D01*
X106132380Y-50189047D01*
X106132380Y-48998571D02*
X106132380Y-49189047D01*
X106180000Y-49284285D01*
X106227619Y-49331904D01*
X106370476Y-49427142D01*
X106560952Y-49474761D01*
X106941904Y-49474761D01*
X107037142Y-49427142D01*
X107084761Y-49379523D01*
X107132380Y-49284285D01*
X107132380Y-49093809D01*
X107084761Y-48998571D01*
X107037142Y-48950952D01*
X106941904Y-48903333D01*
X106703809Y-48903333D01*
X106608571Y-48950952D01*
X106560952Y-48998571D01*
X106513333Y-49093809D01*
X106513333Y-49284285D01*
X106560952Y-49379523D01*
X106608571Y-49427142D01*
X106703809Y-49474761D01*
%TO.C,R4*%
X145883333Y-43802380D02*
X145550000Y-43326190D01*
X145311904Y-43802380D02*
X145311904Y-42802380D01*
X145692857Y-42802380D01*
X145788095Y-42850000D01*
X145835714Y-42897619D01*
X145883333Y-42992857D01*
X145883333Y-43135714D01*
X145835714Y-43230952D01*
X145788095Y-43278571D01*
X145692857Y-43326190D01*
X145311904Y-43326190D01*
X146740476Y-43135714D02*
X146740476Y-43802380D01*
X146502380Y-42754761D02*
X146264285Y-43469047D01*
X146883333Y-43469047D01*
%TO.C,JC3*%
X149312380Y-51633333D02*
X150026666Y-51633333D01*
X150169523Y-51680952D01*
X150264761Y-51776190D01*
X150312380Y-51919047D01*
X150312380Y-52014285D01*
X150217142Y-50585714D02*
X150264761Y-50633333D01*
X150312380Y-50776190D01*
X150312380Y-50871428D01*
X150264761Y-51014285D01*
X150169523Y-51109523D01*
X150074285Y-51157142D01*
X149883809Y-51204761D01*
X149740952Y-51204761D01*
X149550476Y-51157142D01*
X149455238Y-51109523D01*
X149360000Y-51014285D01*
X149312380Y-50871428D01*
X149312380Y-50776190D01*
X149360000Y-50633333D01*
X149407619Y-50585714D01*
X149312380Y-50252380D02*
X149312380Y-49633333D01*
X149693333Y-49966666D01*
X149693333Y-49823809D01*
X149740952Y-49728571D01*
X149788571Y-49680952D01*
X149883809Y-49633333D01*
X150121904Y-49633333D01*
X150217142Y-49680952D01*
X150264761Y-49728571D01*
X150312380Y-49823809D01*
X150312380Y-50109523D01*
X150264761Y-50204761D01*
X150217142Y-50252380D01*
%TO.C,JC4*%
X151852380Y-71953333D02*
X152566666Y-71953333D01*
X152709523Y-72000952D01*
X152804761Y-72096190D01*
X152852380Y-72239047D01*
X152852380Y-72334285D01*
X152757142Y-70905714D02*
X152804761Y-70953333D01*
X152852380Y-71096190D01*
X152852380Y-71191428D01*
X152804761Y-71334285D01*
X152709523Y-71429523D01*
X152614285Y-71477142D01*
X152423809Y-71524761D01*
X152280952Y-71524761D01*
X152090476Y-71477142D01*
X151995238Y-71429523D01*
X151900000Y-71334285D01*
X151852380Y-71191428D01*
X151852380Y-71096190D01*
X151900000Y-70953333D01*
X151947619Y-70905714D01*
X152185714Y-70048571D02*
X152852380Y-70048571D01*
X151804761Y-70286666D02*
X152519047Y-70524761D01*
X152519047Y-69905714D01*
%TO.C,JC2*%
X101052380Y-64333333D02*
X101766666Y-64333333D01*
X101909523Y-64380952D01*
X102004761Y-64476190D01*
X102052380Y-64619047D01*
X102052380Y-64714285D01*
X101957142Y-63285714D02*
X102004761Y-63333333D01*
X102052380Y-63476190D01*
X102052380Y-63571428D01*
X102004761Y-63714285D01*
X101909523Y-63809523D01*
X101814285Y-63857142D01*
X101623809Y-63904761D01*
X101480952Y-63904761D01*
X101290476Y-63857142D01*
X101195238Y-63809523D01*
X101100000Y-63714285D01*
X101052380Y-63571428D01*
X101052380Y-63476190D01*
X101100000Y-63333333D01*
X101147619Y-63285714D01*
X101147619Y-62904761D02*
X101100000Y-62857142D01*
X101052380Y-62761904D01*
X101052380Y-62523809D01*
X101100000Y-62428571D01*
X101147619Y-62380952D01*
X101242857Y-62333333D01*
X101338095Y-62333333D01*
X101480952Y-62380952D01*
X102052380Y-62952380D01*
X102052380Y-62333333D01*
%TO.C,U2*%
X121162380Y-50311904D02*
X121971904Y-50311904D01*
X122067142Y-50264285D01*
X122114761Y-50216666D01*
X122162380Y-50121428D01*
X122162380Y-49930952D01*
X122114761Y-49835714D01*
X122067142Y-49788095D01*
X121971904Y-49740476D01*
X121162380Y-49740476D01*
X121257619Y-49311904D02*
X121210000Y-49264285D01*
X121162380Y-49169047D01*
X121162380Y-48930952D01*
X121210000Y-48835714D01*
X121257619Y-48788095D01*
X121352857Y-48740476D01*
X121448095Y-48740476D01*
X121590952Y-48788095D01*
X122162380Y-49359523D01*
X122162380Y-48740476D01*
%TO.C,JC12V1*%
X101052380Y-88574285D02*
X101766666Y-88574285D01*
X101909523Y-88621904D01*
X102004761Y-88717142D01*
X102052380Y-88860000D01*
X102052380Y-88955238D01*
X101957142Y-87526666D02*
X102004761Y-87574285D01*
X102052380Y-87717142D01*
X102052380Y-87812380D01*
X102004761Y-87955238D01*
X101909523Y-88050476D01*
X101814285Y-88098095D01*
X101623809Y-88145714D01*
X101480952Y-88145714D01*
X101290476Y-88098095D01*
X101195238Y-88050476D01*
X101100000Y-87955238D01*
X101052380Y-87812380D01*
X101052380Y-87717142D01*
X101100000Y-87574285D01*
X101147619Y-87526666D01*
X102052380Y-86574285D02*
X102052380Y-87145714D01*
X102052380Y-86860000D02*
X101052380Y-86860000D01*
X101195238Y-86955238D01*
X101290476Y-87050476D01*
X101338095Y-87145714D01*
X101147619Y-86193333D02*
X101100000Y-86145714D01*
X101052380Y-86050476D01*
X101052380Y-85812380D01*
X101100000Y-85717142D01*
X101147619Y-85669523D01*
X101242857Y-85621904D01*
X101338095Y-85621904D01*
X101480952Y-85669523D01*
X102052380Y-86240952D01*
X102052380Y-85621904D01*
X101052380Y-85336190D02*
X102052380Y-85002857D01*
X101052380Y-84669523D01*
X102052380Y-83812380D02*
X102052380Y-84383809D01*
X102052380Y-84098095D02*
X101052380Y-84098095D01*
X101195238Y-84193333D01*
X101290476Y-84288571D01*
X101338095Y-84383809D01*
%TO.C,JUSB_Conv1*%
X102680000Y-83272380D02*
X102680000Y-83986666D01*
X102632380Y-84129523D01*
X102537142Y-84224761D01*
X102394285Y-84272380D01*
X102299047Y-84272380D01*
X103156190Y-83272380D02*
X103156190Y-84081904D01*
X103203809Y-84177142D01*
X103251428Y-84224761D01*
X103346666Y-84272380D01*
X103537142Y-84272380D01*
X103632380Y-84224761D01*
X103680000Y-84177142D01*
X103727619Y-84081904D01*
X103727619Y-83272380D01*
X104156190Y-84224761D02*
X104299047Y-84272380D01*
X104537142Y-84272380D01*
X104632380Y-84224761D01*
X104680000Y-84177142D01*
X104727619Y-84081904D01*
X104727619Y-83986666D01*
X104680000Y-83891428D01*
X104632380Y-83843809D01*
X104537142Y-83796190D01*
X104346666Y-83748571D01*
X104251428Y-83700952D01*
X104203809Y-83653333D01*
X104156190Y-83558095D01*
X104156190Y-83462857D01*
X104203809Y-83367619D01*
X104251428Y-83320000D01*
X104346666Y-83272380D01*
X104584761Y-83272380D01*
X104727619Y-83320000D01*
X105489523Y-83748571D02*
X105632380Y-83796190D01*
X105680000Y-83843809D01*
X105727619Y-83939047D01*
X105727619Y-84081904D01*
X105680000Y-84177142D01*
X105632380Y-84224761D01*
X105537142Y-84272380D01*
X105156190Y-84272380D01*
X105156190Y-83272380D01*
X105489523Y-83272380D01*
X105584761Y-83320000D01*
X105632380Y-83367619D01*
X105680000Y-83462857D01*
X105680000Y-83558095D01*
X105632380Y-83653333D01*
X105584761Y-83700952D01*
X105489523Y-83748571D01*
X105156190Y-83748571D01*
X105918095Y-84367619D02*
X106680000Y-84367619D01*
X107489523Y-84177142D02*
X107441904Y-84224761D01*
X107299047Y-84272380D01*
X107203809Y-84272380D01*
X107060952Y-84224761D01*
X106965714Y-84129523D01*
X106918095Y-84034285D01*
X106870476Y-83843809D01*
X106870476Y-83700952D01*
X106918095Y-83510476D01*
X106965714Y-83415238D01*
X107060952Y-83320000D01*
X107203809Y-83272380D01*
X107299047Y-83272380D01*
X107441904Y-83320000D01*
X107489523Y-83367619D01*
X108060952Y-84272380D02*
X107965714Y-84224761D01*
X107918095Y-84177142D01*
X107870476Y-84081904D01*
X107870476Y-83796190D01*
X107918095Y-83700952D01*
X107965714Y-83653333D01*
X108060952Y-83605714D01*
X108203809Y-83605714D01*
X108299047Y-83653333D01*
X108346666Y-83700952D01*
X108394285Y-83796190D01*
X108394285Y-84081904D01*
X108346666Y-84177142D01*
X108299047Y-84224761D01*
X108203809Y-84272380D01*
X108060952Y-84272380D01*
X108822857Y-83605714D02*
X108822857Y-84272380D01*
X108822857Y-83700952D02*
X108870476Y-83653333D01*
X108965714Y-83605714D01*
X109108571Y-83605714D01*
X109203809Y-83653333D01*
X109251428Y-83748571D01*
X109251428Y-84272380D01*
X109632380Y-83605714D02*
X109870476Y-84272380D01*
X110108571Y-83605714D01*
X111013333Y-84272380D02*
X110441904Y-84272380D01*
X110727619Y-84272380D02*
X110727619Y-83272380D01*
X110632380Y-83415238D01*
X110537142Y-83510476D01*
X110441904Y-83558095D01*
%TO.C,JC5*%
X151852380Y-61793333D02*
X152566666Y-61793333D01*
X152709523Y-61840952D01*
X152804761Y-61936190D01*
X152852380Y-62079047D01*
X152852380Y-62174285D01*
X152757142Y-60745714D02*
X152804761Y-60793333D01*
X152852380Y-60936190D01*
X152852380Y-61031428D01*
X152804761Y-61174285D01*
X152709523Y-61269523D01*
X152614285Y-61317142D01*
X152423809Y-61364761D01*
X152280952Y-61364761D01*
X152090476Y-61317142D01*
X151995238Y-61269523D01*
X151900000Y-61174285D01*
X151852380Y-61031428D01*
X151852380Y-60936190D01*
X151900000Y-60793333D01*
X151947619Y-60745714D01*
X151852380Y-59840952D02*
X151852380Y-60317142D01*
X152328571Y-60364761D01*
X152280952Y-60317142D01*
X152233333Y-60221904D01*
X152233333Y-59983809D01*
X152280952Y-59888571D01*
X152328571Y-59840952D01*
X152423809Y-59793333D01*
X152661904Y-59793333D01*
X152757142Y-59840952D01*
X152804761Y-59888571D01*
X152852380Y-59983809D01*
X152852380Y-60221904D01*
X152804761Y-60317142D01*
X152757142Y-60364761D01*
%TO.C,D1*%
X139732380Y-50268095D02*
X138732380Y-50268095D01*
X138732380Y-50030000D01*
X138780000Y-49887142D01*
X138875238Y-49791904D01*
X138970476Y-49744285D01*
X139160952Y-49696666D01*
X139303809Y-49696666D01*
X139494285Y-49744285D01*
X139589523Y-49791904D01*
X139684761Y-49887142D01*
X139732380Y-50030000D01*
X139732380Y-50268095D01*
X139732380Y-48744285D02*
X139732380Y-49315714D01*
X139732380Y-49030000D02*
X138732380Y-49030000D01*
X138875238Y-49125238D01*
X138970476Y-49220476D01*
X139018095Y-49315714D01*
X139412380Y-45981904D02*
X138412380Y-45981904D01*
X139412380Y-45410476D02*
X138840952Y-45839047D01*
X138412380Y-45410476D02*
X138983809Y-45981904D01*
%TO.C,BMP280*%
X111688571Y-54498571D02*
X111736190Y-54355714D01*
X111783809Y-54308095D01*
X111879047Y-54260476D01*
X112021904Y-54260476D01*
X112117142Y-54308095D01*
X112164761Y-54355714D01*
X112212380Y-54450952D01*
X112212380Y-54831904D01*
X111212380Y-54831904D01*
X111212380Y-54498571D01*
X111260000Y-54403333D01*
X111307619Y-54355714D01*
X111402857Y-54308095D01*
X111498095Y-54308095D01*
X111593333Y-54355714D01*
X111640952Y-54403333D01*
X111688571Y-54498571D01*
X111688571Y-54831904D01*
X112212380Y-53831904D02*
X111212380Y-53831904D01*
X111926666Y-53498571D01*
X111212380Y-53165238D01*
X112212380Y-53165238D01*
X112212380Y-52689047D02*
X111212380Y-52689047D01*
X111212380Y-52308095D01*
X111260000Y-52212857D01*
X111307619Y-52165238D01*
X111402857Y-52117619D01*
X111545714Y-52117619D01*
X111640952Y-52165238D01*
X111688571Y-52212857D01*
X111736190Y-52308095D01*
X111736190Y-52689047D01*
X111307619Y-51736666D02*
X111260000Y-51689047D01*
X111212380Y-51593809D01*
X111212380Y-51355714D01*
X111260000Y-51260476D01*
X111307619Y-51212857D01*
X111402857Y-51165238D01*
X111498095Y-51165238D01*
X111640952Y-51212857D01*
X112212380Y-51784285D01*
X112212380Y-51165238D01*
X111640952Y-50593809D02*
X111593333Y-50689047D01*
X111545714Y-50736666D01*
X111450476Y-50784285D01*
X111402857Y-50784285D01*
X111307619Y-50736666D01*
X111260000Y-50689047D01*
X111212380Y-50593809D01*
X111212380Y-50403333D01*
X111260000Y-50308095D01*
X111307619Y-50260476D01*
X111402857Y-50212857D01*
X111450476Y-50212857D01*
X111545714Y-50260476D01*
X111593333Y-50308095D01*
X111640952Y-50403333D01*
X111640952Y-50593809D01*
X111688571Y-50689047D01*
X111736190Y-50736666D01*
X111831428Y-50784285D01*
X112021904Y-50784285D01*
X112117142Y-50736666D01*
X112164761Y-50689047D01*
X112212380Y-50593809D01*
X112212380Y-50403333D01*
X112164761Y-50308095D01*
X112117142Y-50260476D01*
X112021904Y-50212857D01*
X111831428Y-50212857D01*
X111736190Y-50260476D01*
X111688571Y-50308095D01*
X111640952Y-50403333D01*
X111212380Y-49593809D02*
X111212380Y-49498571D01*
X111260000Y-49403333D01*
X111307619Y-49355714D01*
X111402857Y-49308095D01*
X111593333Y-49260476D01*
X111831428Y-49260476D01*
X112021904Y-49308095D01*
X112117142Y-49355714D01*
X112164761Y-49403333D01*
X112212380Y-49498571D01*
X112212380Y-49593809D01*
X112164761Y-49689047D01*
X112117142Y-49736666D01*
X112021904Y-49784285D01*
X111831428Y-49831904D01*
X111593333Y-49831904D01*
X111402857Y-49784285D01*
X111307619Y-49736666D01*
X111260000Y-49689047D01*
X111212380Y-49593809D01*
%TO.C,R3*%
X147942380Y-85256666D02*
X147466190Y-85590000D01*
X147942380Y-85828095D02*
X146942380Y-85828095D01*
X146942380Y-85447142D01*
X146990000Y-85351904D01*
X147037619Y-85304285D01*
X147132857Y-85256666D01*
X147275714Y-85256666D01*
X147370952Y-85304285D01*
X147418571Y-85351904D01*
X147466190Y-85447142D01*
X147466190Y-85828095D01*
X146942380Y-84923333D02*
X146942380Y-84304285D01*
X147323333Y-84637619D01*
X147323333Y-84494761D01*
X147370952Y-84399523D01*
X147418571Y-84351904D01*
X147513809Y-84304285D01*
X147751904Y-84304285D01*
X147847142Y-84351904D01*
X147894761Y-84399523D01*
X147942380Y-84494761D01*
X147942380Y-84780476D01*
X147894761Y-84875714D01*
X147847142Y-84923333D01*
%TO.C,R6*%
X128103333Y-51422380D02*
X127770000Y-50946190D01*
X127531904Y-51422380D02*
X127531904Y-50422380D01*
X127912857Y-50422380D01*
X128008095Y-50470000D01*
X128055714Y-50517619D01*
X128103333Y-50612857D01*
X128103333Y-50755714D01*
X128055714Y-50850952D01*
X128008095Y-50898571D01*
X127912857Y-50946190D01*
X127531904Y-50946190D01*
X128960476Y-50422380D02*
X128770000Y-50422380D01*
X128674761Y-50470000D01*
X128627142Y-50517619D01*
X128531904Y-50660476D01*
X128484285Y-50850952D01*
X128484285Y-51231904D01*
X128531904Y-51327142D01*
X128579523Y-51374761D01*
X128674761Y-51422380D01*
X128865238Y-51422380D01*
X128960476Y-51374761D01*
X129008095Y-51327142D01*
X129055714Y-51231904D01*
X129055714Y-50993809D01*
X129008095Y-50898571D01*
X128960476Y-50850952D01*
X128865238Y-50803333D01*
X128674761Y-50803333D01*
X128579523Y-50850952D01*
X128531904Y-50898571D01*
X128484285Y-50993809D01*
%TO.C,R5*%
X128103333Y-43802380D02*
X127770000Y-43326190D01*
X127531904Y-43802380D02*
X127531904Y-42802380D01*
X127912857Y-42802380D01*
X128008095Y-42850000D01*
X128055714Y-42897619D01*
X128103333Y-42992857D01*
X128103333Y-43135714D01*
X128055714Y-43230952D01*
X128008095Y-43278571D01*
X127912857Y-43326190D01*
X127531904Y-43326190D01*
X129008095Y-42802380D02*
X128531904Y-42802380D01*
X128484285Y-43278571D01*
X128531904Y-43230952D01*
X128627142Y-43183333D01*
X128865238Y-43183333D01*
X128960476Y-43230952D01*
X129008095Y-43278571D01*
X129055714Y-43373809D01*
X129055714Y-43611904D01*
X129008095Y-43707142D01*
X128960476Y-43754761D01*
X128865238Y-43802380D01*
X128627142Y-43802380D01*
X128531904Y-43754761D01*
X128484285Y-43707142D01*
%TO.C,I2C1*%
X102052380Y-54792380D02*
X101052380Y-54792380D01*
X101147619Y-54363809D02*
X101100000Y-54316190D01*
X101052380Y-54220952D01*
X101052380Y-53982857D01*
X101100000Y-53887619D01*
X101147619Y-53840000D01*
X101242857Y-53792380D01*
X101338095Y-53792380D01*
X101480952Y-53840000D01*
X102052380Y-54411428D01*
X102052380Y-53792380D01*
X101957142Y-52792380D02*
X102004761Y-52840000D01*
X102052380Y-52982857D01*
X102052380Y-53078095D01*
X102004761Y-53220952D01*
X101909523Y-53316190D01*
X101814285Y-53363809D01*
X101623809Y-53411428D01*
X101480952Y-53411428D01*
X101290476Y-53363809D01*
X101195238Y-53316190D01*
X101100000Y-53220952D01*
X101052380Y-53078095D01*
X101052380Y-52982857D01*
X101100000Y-52840000D01*
X101147619Y-52792380D01*
X102052380Y-51840000D02*
X102052380Y-52411428D01*
X102052380Y-52125714D02*
X101052380Y-52125714D01*
X101195238Y-52220952D01*
X101290476Y-52316190D01*
X101338095Y-52411428D01*
%TO.C,R2*%
X145883333Y-56162380D02*
X145550000Y-55686190D01*
X145311904Y-56162380D02*
X145311904Y-55162380D01*
X145692857Y-55162380D01*
X145788095Y-55210000D01*
X145835714Y-55257619D01*
X145883333Y-55352857D01*
X145883333Y-55495714D01*
X145835714Y-55590952D01*
X145788095Y-55638571D01*
X145692857Y-55686190D01*
X145311904Y-55686190D01*
X146264285Y-55257619D02*
X146311904Y-55210000D01*
X146407142Y-55162380D01*
X146645238Y-55162380D01*
X146740476Y-55210000D01*
X146788095Y-55257619D01*
X146835714Y-55352857D01*
X146835714Y-55448095D01*
X146788095Y-55590952D01*
X146216666Y-56162380D01*
X146835714Y-56162380D01*
D11*
%TO.C,U1*%
X147320000Y-57055000D02*
X113030000Y-57055000D01*
X147320000Y-92615000D02*
X147320000Y-57055000D01*
X129540000Y-92615000D02*
X147320000Y-92615000D01*
X113030000Y-92615000D02*
X129540000Y-92615000D01*
X113030000Y-57055000D02*
X113030000Y-92615000D01*
%TO.C,R1*%
X105640000Y-65500000D02*
X105310000Y-65500000D01*
X105310000Y-58960000D02*
X105640000Y-58960000D01*
X107720000Y-65500000D02*
X108050000Y-65500000D01*
X105310000Y-65500000D02*
X105310000Y-58960000D01*
X108050000Y-58960000D02*
X107720000Y-58960000D01*
X108050000Y-65500000D02*
X108050000Y-58960000D01*
%TO.C,SSD1306*%
X105470000Y-44390000D02*
X102810000Y-44390000D01*
X105470000Y-52070000D02*
X105470000Y-44390000D01*
X105470000Y-53340000D02*
X105470000Y-54670000D01*
X102810000Y-52070000D02*
X102810000Y-44390000D01*
X105470000Y-54670000D02*
X104140000Y-54670000D01*
X105470000Y-52070000D02*
X102810000Y-52070000D01*
%TO.C,R4*%
X142780000Y-44680000D02*
X142780000Y-44350000D01*
X149320000Y-47090000D02*
X149320000Y-46760000D01*
X142780000Y-44350000D02*
X149320000Y-44350000D01*
X142780000Y-46760000D02*
X142780000Y-47090000D01*
X142780000Y-47090000D02*
X149320000Y-47090000D01*
X149320000Y-44350000D02*
X149320000Y-44680000D01*
%TO.C,JC3*%
X160020000Y-45720000D02*
X160020000Y-55880000D01*
X161290000Y-45720000D02*
X153670000Y-45720000D01*
X153670000Y-45720000D02*
X153670000Y-55880000D01*
X161290000Y-55880000D02*
X161290000Y-45720000D01*
X153670000Y-55880000D02*
X161290000Y-55880000D01*
%TO.C,JC4*%
X160020000Y-66040000D02*
X160020000Y-76200000D01*
X161290000Y-66040000D02*
X153670000Y-66040000D01*
X153670000Y-76200000D02*
X161290000Y-76200000D01*
X153670000Y-66040000D02*
X153670000Y-76200000D01*
X161290000Y-76200000D02*
X161290000Y-66040000D01*
%TO.C,JC2*%
X93980000Y-68580000D02*
X93980000Y-58420000D01*
X100330000Y-58420000D02*
X92710000Y-58420000D01*
X100330000Y-68580000D02*
X100330000Y-58420000D01*
X92710000Y-58420000D02*
X92710000Y-68580000D01*
X92710000Y-68580000D02*
X100330000Y-68580000D01*
%TO.C,U2*%
X115510000Y-52200000D02*
X120710000Y-52200000D01*
X120710000Y-52200000D02*
X120710000Y-50550000D01*
X120710000Y-48550000D02*
X120710000Y-46900000D01*
X120710000Y-46900000D02*
X115510000Y-46900000D01*
X115510000Y-46900000D02*
X115510000Y-52200000D01*
X120710000Y-48550000D02*
G75*
G03*
X120710000Y-50550000I0J-1000000D01*
G01*
%TO.C,JC12V1*%
X92710000Y-81280000D02*
X92710000Y-91440000D01*
X92710000Y-91440000D02*
X100330000Y-91440000D01*
X100330000Y-91440000D02*
X100330000Y-81280000D01*
X93980000Y-91440000D02*
X93980000Y-81280000D01*
X100330000Y-81280000D02*
X92710000Y-81280000D01*
%TO.C,JUSB_Conv1*%
X105350000Y-85030000D02*
X106680000Y-85030000D01*
X105350000Y-90230000D02*
X108010000Y-90230000D01*
X105350000Y-87630000D02*
X105350000Y-90230000D01*
X108010000Y-87630000D02*
X108010000Y-90230000D01*
X105350000Y-86360000D02*
X105350000Y-85030000D01*
X105350000Y-87630000D02*
X108010000Y-87630000D01*
%TO.C,JC5*%
X161290000Y-55880000D02*
X153670000Y-55880000D01*
X160020000Y-55880000D02*
X160020000Y-66040000D01*
X153670000Y-66040000D02*
X161290000Y-66040000D01*
X153670000Y-55880000D02*
X153670000Y-66040000D01*
X161290000Y-66040000D02*
X161290000Y-55880000D01*
%TO.C,D1*%
X137160000Y-46760000D02*
X137160000Y-47410000D01*
X138280000Y-48130000D02*
X136040000Y-48130000D01*
X138280000Y-47410000D02*
X136040000Y-47410000D01*
X136040000Y-51650000D02*
X138280000Y-51650000D01*
X138280000Y-48250000D02*
X136040000Y-48250000D01*
X137160000Y-52300000D02*
X137160000Y-51650000D01*
X138280000Y-51650000D02*
X138280000Y-47410000D01*
X138280000Y-48010000D02*
X136040000Y-48010000D01*
X136040000Y-47410000D02*
X136040000Y-51650000D01*
%TO.C,BMP280*%
X110550000Y-53340000D02*
X110550000Y-54670000D01*
X110550000Y-54670000D02*
X109220000Y-54670000D01*
X110550000Y-52070000D02*
X110550000Y-44390000D01*
X107890000Y-52070000D02*
X107890000Y-44390000D01*
X110550000Y-52070000D02*
X107890000Y-52070000D01*
X110550000Y-44390000D02*
X107890000Y-44390000D01*
%TO.C,R3*%
X151230000Y-88360000D02*
X151230000Y-81820000D01*
X151230000Y-81820000D02*
X150900000Y-81820000D01*
X148490000Y-81820000D02*
X148820000Y-81820000D01*
X150900000Y-88360000D02*
X151230000Y-88360000D01*
X148490000Y-88360000D02*
X148490000Y-81820000D01*
X148820000Y-88360000D02*
X148490000Y-88360000D01*
%TO.C,R6*%
X125000000Y-54710000D02*
X131540000Y-54710000D01*
X131540000Y-51970000D02*
X131540000Y-52300000D01*
X125000000Y-54380000D02*
X125000000Y-54710000D01*
X131540000Y-54710000D02*
X131540000Y-54380000D01*
X125000000Y-52300000D02*
X125000000Y-51970000D01*
X125000000Y-51970000D02*
X131540000Y-51970000D01*
%TO.C,R5*%
X125000000Y-46760000D02*
X125000000Y-47090000D01*
X131540000Y-47090000D02*
X131540000Y-46760000D01*
X125000000Y-47090000D02*
X131540000Y-47090000D01*
X131540000Y-44350000D02*
X131540000Y-44680000D01*
X125000000Y-44680000D02*
X125000000Y-44350000D01*
X125000000Y-44350000D02*
X131540000Y-44350000D01*
%TO.C,I2C1*%
X100390000Y-53340000D02*
X100390000Y-54670000D01*
X100390000Y-44390000D02*
X97730000Y-44390000D01*
X100390000Y-52070000D02*
X100390000Y-44390000D01*
X100390000Y-52070000D02*
X97730000Y-52070000D01*
X100390000Y-54670000D02*
X99060000Y-54670000D01*
X97730000Y-52070000D02*
X97730000Y-44390000D01*
%TO.C,R2*%
X149320000Y-54710000D02*
X142780000Y-54710000D01*
X142780000Y-51970000D02*
X142780000Y-52300000D01*
X149320000Y-52300000D02*
X149320000Y-51970000D01*
X142780000Y-54710000D02*
X142780000Y-54380000D01*
X149320000Y-51970000D02*
X142780000Y-51970000D01*
X149320000Y-54380000D02*
X149320000Y-54710000D01*
%TD*%
M02*
